# File created by Blade
# Date/Time:  Thu Jan 22 19:08:58 2015
# Frame Rate: 120.000 fps
#------------------------------------------------------
:FULLY-SPECIFIED
:DEGREES
2059
root -2.413279 33.122416 -0.278242 6.285156 -4.252802 2.637280
RightUpLeg -0.029446 -8.012887 -3.676235
RightLeg -0.961700 -0.000000 0.000000
RightFoot -10.526954 -4.236930 4.695687
RightToeBase 5.697075 -0.000000 -0.000000
LeftUpLeg 0.247511 6.093131 2.809223
LeftLeg 2.072478 -0.000000 -0.000000
LeftFoot -10.707371 1.628443 -11.344943
LeftToeBase 7.602402 -0.000000 -0.000000
Spine -10.310195 -3.000309 -1.578420
RightShoulder -19.811591 8.206242 -52.406788
RightArm 42.022675 46.843178 24.011952
RightForeArm -14.694145 0.000000 15.106522
RightHand 9.626089 -0.000000 0.764798
RightHandThumb1 -24.326973 -0.000000 -32.862282
LeftShoulder -25.832678 -11.978888 53.836492
LeftArm 49.379689 -48.432886 -23.959301
LeftForeArm 20.383065 -0.000000 7.986119
LeftHand -5.699486 -0.000000 -3.509090
LeftHandThumb1 -26.253704 0.000000 33.147579
Head 2.060283 7.297845 -2.001837
2060
root -2.415658 33.123771 -0.275850 6.271071 -4.261409 2.644134
RightUpLeg -0.009940 -8.008693 -3.680698
RightLeg -0.970053 -0.000000 0.000000
RightFoot -10.519034 -4.240135 4.684722
RightToeBase 5.657179 -0.000000 -0.000000
LeftUpLeg 0.273453 6.094233 2.807696
LeftLeg 2.062617 -0.000000 -0.000000
LeftFoot -10.689448 1.625219 -11.384685
LeftToeBase 7.608279 -0.000000 -0.000000
Spine -10.312281 -2.999123 -1.607201
RightShoulder -19.896505 8.424551 -52.670869
RightArm 42.961515 47.370950 24.618351
RightForeArm -14.787976 -0.000000 15.271164
RightHand 9.627440 -0.000000 0.656496
RightHandThumb1 -24.326973 -0.000000 -32.862282
LeftShoulder -25.985686 -12.381743 54.146108
LeftArm 50.425547 -48.491264 -24.619679
LeftForeArm 20.351254 -0.000000 8.145093
LeftHand -5.734340 0.000000 -3.391865
LeftHandThumb1 -26.253704 0.000000 33.147579
Head 1.959363 7.231422 -2.029331
2061
root -2.417658 33.125675 -0.273759 6.248131 -4.267501 2.649311
RightUpLeg 0.015886 -7.979007 -3.686203
RightLeg -0.971884 -0.000000 0.000000
RightFoot -10.507785 -4.273093 4.679015
RightToeBase 5.684848 -0.000000 -0.000000
LeftUpLeg 0.306787 6.120751 2.809946
LeftLeg 2.047828 -0.000000 -0.000000
LeftFoot -10.664061 1.597937 -11.392763
LeftToeBase 7.658687 -0.000000 -0.000000
Spine -10.306908 -3.017541 -1.611523
RightShoulder -20.040860 8.938597 -53.096455
RightArm 43.771346 47.491216 25.115654
RightForeArm -14.845021 -0.000000 15.353700
RightHand 9.614523 -0.000000 0.764841
RightHandThumb1 -24.326973 -0.000000 -32.862282
LeftShoulder -26.145816 -12.780254 54.425995
LeftArm 51.356175 -48.429813 -25.114615
LeftForeArm 20.561657 -0.000000 8.275163
LeftHand -5.834391 -0.000000 -3.202058
LeftHandThumb1 -26.253704 0.000000 33.147579
Head 1.858803 7.212096 -2.077086
2062
root -2.420778 33.127150 -0.271484 6.229890 -4.273222 2.646885
RightUpLeg 0.038679 -7.969187 -3.679686
RightLeg -0.977619 -0.000000 0.000000
RightFoot -10.489929 -4.284302 4.680771
RightToeBase 5.633825 -0.000000 -0.000000
LeftUpLeg 0.336085 6.148071 2.821045
LeftLeg 2.036510 -0.000000 -0.000000
LeftFoot -10.640451 1.570601 -11.404893
LeftToeBase 7.624153 -0.000000 -0.000000
Spine -10.306207 -3.033947 -1.620205
RightShoulder -20.093165 9.205089 -53.397853
RightArm 44.534285 47.851088 25.562342
RightForeArm -14.778109 -0.000000 15.479481
RightHand 9.730636 -0.000000 0.171963
RightHandThumb1 -24.326973 -0.000000 -32.862282
LeftShoulder -26.277831 -13.158698 54.700636
LeftArm 52.209526 -48.376976 -25.519655
LeftForeArm 20.671849 -0.000000 8.388675
LeftHand -5.918455 -0.000000 -2.965631
LeftHandThumb1 -26.253704 0.000000 33.147579
Head 1.761666 7.176936 -2.093701
2063
root -2.422813 33.129584 -0.269430 6.204799 -4.273751 2.650204
RightUpLeg 0.065245 -7.968586 -3.683671
RightLeg -0.971691 -0.000000 0.000000
RightFoot -10.485980 -4.282952 4.684788
RightToeBase 5.669882 -0.000000 -0.000000
LeftUpLeg 0.368932 6.166064 2.822847
LeftLeg 2.023099 -0.000000 -0.000000
LeftFoot -10.608021 1.568763 -11.401417
LeftToeBase 7.644635 -0.000000 -0.000000
Spine -10.294949 -3.080184 -1.620588
RightShoulder -20.287892 10.191284 -54.012746
RightArm 45.067394 47.467354 25.898581
RightForeArm -14.922488 -0.000000 15.506442
RightHand 9.796034 -0.000000 0.171659
RightHandThumb1 -24.326973 -0.000000 -32.862282
LeftShoulder -26.439255 -13.519504 54.986403
LeftArm 53.071813 -48.321662 -25.994298
LeftForeArm 20.897204 -0.000000 8.537872
LeftHand -5.882326 -0.000000 -3.106138
LeftHandThumb1 -26.253704 0.000000 33.147579
Head 1.676301 7.237781 -2.129945
